<svg width="16" height="16" viewBox="0 0 16 16" fill="none" xmlns="http://www.w3.org/2000/svg">
<g clip-path="url(#clip0)">
<path d="M15.4902 0.427246H11.583C11.3034 0.427246 11.0759 0.652441 11.0732 0.932024C11.0671 1.55227 10.5576 2.05688 9.93737 2.05688C9.31712 2.05688 8.8076 1.55227 8.80151 0.932024C8.7988 0.652441 8.57135 0.427246 8.29176 0.427246H4.32411C4.04258 0.427246 3.81433 0.6555 3.81433 0.937026V4.04659C3.81433 4.25572 3.94206 4.44364 4.13654 4.52062L4.82401 4.79265C5.4137 5.02597 5.79476 5.5865 5.79476 6.2207V11.7401C5.79476 12.0216 6.02302 12.2499 6.30454 12.2499H13.5098C13.7913 12.2499 14.0196 12.0216 14.0196 11.7401V6.22067C14.0196 5.58647 14.4006 5.02594 14.9903 4.79262L15.6778 4.52059C15.8723 4.44364 16 4.25572 16 4.04659V0.937026C16 0.6555 15.7717 0.427246 15.4902 0.427246ZM14.9804 3.70006L14.6152 3.84459C13.634 4.23282 13 5.16549 13 6.2207V11.2303H6.81432V6.22067C6.81432 5.16546 6.18032 4.23278 5.19915 3.84455L4.83389 3.70003V1.44681H7.84724C8.08371 2.38091 8.93425 3.07644 9.93737 3.07644C10.9405 3.07644 11.791 2.38091 12.0275 1.44681H14.9804V3.70006Z" fill="#00C7C8"/>
<path d="M14.957 12.9151C14.7579 12.716 14.4352 12.716 14.2361 12.9151C14.037 13.1142 14.037 13.437 14.2361 13.6361C14.2725 13.6725 15.2152 13.6595 1.91326 13.6595C1.91326 1.28145 1.90023 2.1547 1.93668 2.19115C2.13575 2.39022 2.45854 2.39022 2.6576 2.19115C2.85671 1.99205 2.85671 1.6693 2.6576 1.47023L1.76396 0.576548C1.56486 0.377479 1.2421 0.377479 1.043 0.576548L0.149326 1.47023C-0.0497753 1.6693 -0.0497753 1.99208 0.149326 2.19115C0.348395 2.39022 0.671182 2.39022 0.870251 2.19115C0.9067 2.1547 0.893669 1.24423 0.893669 14.1693C0.893669 14.4508 1.12192 14.679 1.40345 14.679H14.2595C14.011 14.9276 14.0556 15.2429 14.2361 15.4234C14.4351 15.6224 14.7579 15.6225 14.957 15.4234L15.8507 14.5297C16.0497 14.3306 16.0497 14.0079 15.8507 13.8088L14.957 12.9151Z" fill="#00C7C8"/>
</g>
<defs>
<clipPath id="clip0">
<rect width="16" height="16" fill="white"/>
</clipPath>
</defs>
</svg>
